<?xml version="1.0" encoding="utf-8"?>
<!-- Svg Vector Icons : http://www.onlinewebfonts.com/icon -->
<!DOCTYPE svg PUBLIC "-//W3C//DTD SVG 1.1//EN" "http://www.w3.org/Graphics/SVG/1.1/DTD/svg11.dtd">
<svg version="1.1" xmlns="http://www.w3.org/2000/svg" xmlns:xlink="http://www.w3.org/1999/xlink" x="0px" y="0px" viewBox="0 0 256 256" enable-background="new 0 0 256 256" xml:space="preserve">
<metadata> Svg Vector Icons : http://www.onlinewebfonts.com/icon </metadata>
<g><g><path fill="#000000" d="M228.9,244.1c-6.3,3.7-14.9,1.8-17.9-4.7c-5.4-11.5-26.5-59.5-82.7-59c-49.6,0.5-77.3,44.2-82.7,59c-2.5,6.8-11.7,8.4-17.9,4.7c-6.3-3.6-7.4-11.2-4.7-17.9c5-12.7,32.6-72.6,105.4-72c76,0.6,102,55.2,105.4,72C235.1,233.3,235.2,240.5,228.9,244.1z M128.7,141c-36.2,0-65.5-29.3-65.5-65.5c0-36.2,29.4-65.5,65.5-65.5c36.2,0,65.5,29.3,65.5,65.5C194.2,111.7,164.9,141,128.7,141z M128.7,36.2c-21.7,0-39.3,17.6-39.3,39.3c0,21.7,17.6,39.3,39.3,39.3c21.7,0,39.3-17.6,39.3-39.3C168,53.8,150.4,36.2,128.7,36.2z"/></g></g>
</svg>