<?xml version="1.0" encoding="utf-8"?>
<!-- Svg Vector Icons : http://www.onlinewebfonts.com/icon -->
<!DOCTYPE svg PUBLIC "-//W3C//DTD SVG 1.1//EN" "http://www.w3.org/Graphics/SVG/1.1/DTD/svg11.dtd">
<svg version="1.1" xmlns="http://www.w3.org/2000/svg" xmlns:xlink="http://www.w3.org/1999/xlink" x="0px" y="0px" viewBox="0 0 256 256" enable-background="new 0 0 256 256" xml:space="preserve">
<metadata> Svg Vector Icons : http://www.onlinewebfonts.com/icon </metadata>
<g><g><g><path fill="#000000" d="M117.8,10.7c-24.2,3.3-45.6,18.8-56.7,41c-7,14.1-8.3,21.4-8.3,46.1v14.9h-6h-6v66.6V246H128h87.1v-66.6v-66.6h-6h-6V98.1c0-20.2-0.6-26-4.1-36.5C187.7,27.5,153.1,5.9,117.8,10.7z M137.7,26.8c8.3,1.4,18,5.4,24.7,10.5c9.5,7.1,17.1,17.9,20.7,29.2c2.6,8.3,2.7,9.4,2.9,28.4l0.2,17.9h-57.7H70.7L71,95.1c0.2-18.9,0.4-20.6,2.9-28.2C82.8,39.8,110.5,22.4,137.7,26.8z M135.8,152.8c5.5,2.1,10,7.1,11.1,12.4c0.7,3.2,0.4,5-1.3,8.7c-1.6,3.4-4.3,6.5-7.5,8.5l-2.3,1.5v13.1V210h-6.9H122v-13.1v-13.1l-1.7-0.9c-6.7-3.5-10.2-11.3-8.3-18.3c2.3-8,10-13.4,18.3-12.9C132,151.8,134.5,152.3,135.8,152.8z"/></g></g></g>
</svg>